<?xml version="1.0" encoding="utf-8"?><svg xmlns="http://www.w3.org/2000/svg" xmlns:xlink="http://www.w3.org/1999/xlink"><symbol viewBox="4.21 6.32 696.85 187.04" id="app-logo" xmlns="http://www.w3.org/2000/svg"><svg xmlns="http://www.w3.org/2000/svg" viewBox="3 5 95 95" height="200" width="200"><path d="M49.422 8C24.928 8 5 27.928 5 52.422s19.928 44.422 44.422 44.422 44.422-19.928 44.422-44.422S73.916 8 49.422 8m0 3.122c19.455 0 35.801 13.525 40.152 31.664H50.185l.067 2.342.068 2.34c.014.492-.318.904-.812.919-.492.015-.866-.372-.866-.865v-.055l.043-2.34.043-2.342H9.269c4.353-18.138 20.698-31.663 40.153-31.663m.052 60.475a1.68 1.68 0 0 1 1.624 1.624l.262 8.586a1.94 1.94 0 0 1-1.878 1.996 1.94 1.94 0 0 1-1.996-1.996l.261-8.586c.027-.925.8-1.654 1.727-1.624m-1.613-6.874v-.086l.334-8.584c.02-.637.588-1.138 1.225-1.117a1.173 1.173 0 0 1 1.137 1.117l.271 8.584c.024.781-.66 1.436-1.44 1.457-.781.025-1.527-.59-1.527-1.371M8.78 45.127h33.046a146 146 0 0 0-8.617 5.5A192.5 192.5 0 0 0 11.55 68.875a41.07 41.07 0 0 1-2.77-23.748m38.345 48.529.099-3.266a2.2 2.2 0 0 1 4.397 0l.099 3.266c-.76.04-1.527.065-2.297.065a43 43 0 0 1-2.298-.065m40.17-24.781a192.6 192.6 0 0 0-21.66-18.248 146 146 0 0 0-8.616-5.5h33.045a41.1 41.1 0 0 1-2.769 23.748" fill="#405e9d"/></svg><svg xmlns="http://www.w3.org/2000/svg" width="501" height="110" viewBox="-30 0 521 71" x="200" y="55"><path d="M229.053 16.406v8.106a30 30 0 0 1-.26 4.053 22.5 22.5 0 0 1-.814 3.71 23.4 23.4 0 0 1-1.639 3.958 20 20 0 0 1-1.267 2.073 20.5 20.5 0 0 1-4.223 4.467 25.5 25.5 0 0 1-5.005 3.052 24.2 24.2 0 0 1-4.941 1.664l-.333.07a28 28 0 0 1-2.893.434 22 22 0 0 1-2.112.103l26.514 22.9h-19.629l-26.465-22.9h-9.13V35.4h28.71a15.7 15.7 0 0 0 2.829-.482 13 13 0 0 0 1.542-.519q1.977-.805 3.418-2.172a9.3 9.3 0 0 0 2.221-3.296 10.5 10.5 0 0 0 .65-2.471 14 14 0 0 0 .131-1.948v-8.008q0-1.074-.268-1.636a2.5 2.5 0 0 0-.241-.406q-.195-.264-.443-.424a2 2 0 0 0-.692-.288 2 2 0 0 0-.187-.029 9 9 0 0 0-.445-.037 7 7 0 0 0-.409-.012h-41.895v57.324h-12.695V7.373a6.4 6.4 0 0 1 .488-2.49q.489-1.172 1.343-2.051a6 6 0 0 1 2.027-1.367 6.4 6.4 0 0 1 2.2-.481 8 8 0 0 1 .339-.007h48.193q3.775 0 6.509 1.214a11 11 0 0 1 .669.324 15.7 15.7 0 0 1 3.082 2.094 13.4 13.4 0 0 1 1.678 1.763q1.831 2.319 2.637 5.005a20 20 0 0 1 .604 2.6 15.4 15.4 0 0 1 .202 2.429M413.037.977v64.599a6.4 6.4 0 0 1-.31 2.008 6 6 0 0 1-.203.531q-.512 1.172-1.367 2.027a6.2 6.2 0 0 1-2.026 1.342 6.4 6.4 0 0 1-2.49.489 6.7 6.7 0 0 1-1.977-.307 8 8 0 0 1-.391-.133q-1.197-.439-2.124-1.416L355.762 21.68v49.316h-12.696v-64.6q0-1.953 1.099-3.54a6.8 6.8 0 0 1 2.808-2.368A6.5 6.5 0 0 1 349.425 0a6.7 6.7 0 0 1 1.259.122 6.03 6.03 0 0 1 3.271 1.782l46.387 48.389V.977zm78.028 57.324v12.695h-45.801q-2.637 0-5.762-.928-3.125-.927-5.786-3.051a16.3 16.3 0 0 1-3.371-3.71 20 20 0 0 1-1.072-1.808 14.7 14.7 0 0 1-1.337-3.778q-.362-1.691-.43-3.636a26 26 0 0 1-.016-.911V7.373a6.4 6.4 0 0 1 .489-2.49q.488-1.172 1.342-2.051a6 6 0 0 1 2.027-1.367 6.4 6.4 0 0 1 2.2-.481 8 8 0 0 1 .339-.007h57.178v12.695h-50.879v39.502q0 1.846.724 3.048a4 4 0 0 0 .594.76 4.2 4.2 0 0 0 1.745 1.029q.663.208 1.464.267a9 9 0 0 0 .648.023zm-427.442 0v12.695H17.822a17 17 0 0 1-2.062-.131 22 22 0 0 1-1.722-.284 19.5 19.5 0 0 1-4.004-1.294q-1.977-.879-3.784-2.27t-3.198-3.37a15.7 15.7 0 0 1-1.648-3.019 19 19 0 0 1-.574-1.57 17.3 17.3 0 0 1-.682-3.241A23 23 0 0 1 0 53.174V18.799a17 17 0 0 1 .131-2.063 22 22 0 0 1 .284-1.721 19.5 19.5 0 0 1 1.294-4.004 17.8 17.8 0 0 1 2.12-3.558l.175-.226a15.9 15.9 0 0 1 3.394-3.199 16 16 0 0 1 3.12-1.695 19 19 0 0 1 1.445-.526q2.588-.83 5.859-.83h45.801v12.695H17.822q-1.846 0-3.048.724a4 4 0 0 0-.76.594 4.2 4.2 0 0 0-1.009 1.697q-.213.657-.279 1.455a9 9 0 0 0-.031.754v34.278q0 2.441 1.343 3.784a4.4 4.4 0 0 0 2.013 1.13q.799.213 1.771.213zm80.713-50.928v63.623h-12.695V53.809H87.012v17.187H74.316v-35.01a39 39 0 0 1 1.123-9.482 34 34 0 0 1 1.514-4.629 33.1 33.1 0 0 1 6.605-10.348 32 32 0 0 1 .719-.736 33.35 33.35 0 0 1 11.084-7.227 35.9 35.9 0 0 1 11.154-2.496 42 42 0 0 1 2.811-.091h28.614a6.4 6.4 0 0 1 2.49.488q1.172.488 2.051 1.367.878.879 1.367 2.051a6.4 6.4 0 0 1 .488 2.49m161.768 50.928v12.695h-57.911a6.7 6.7 0 0 1-1.921-.269 6 6 0 0 1-.618-.219 6.2 6.2 0 0 1-2.026-1.343 6.2 6.2 0 0 1-1.343-2.026 6.4 6.4 0 0 1-.48-2.201 8 8 0 0 1-.008-.338V.977h12.695v57.324zM328.223.977v70.019h-12.696V.977zM87.012 35.986v5.127h44.629V13.672h-22.315q-.586 0-2.466.171a19 19 0 0 0-1.69.235q-.884.161-1.869.411a36 36 0 0 0-.786.208 24 24 0 0 0-2.778.967 32 32 0 0 0-2.422 1.133 17.7 17.7 0 0 0-4.005 2.868 21 21 0 0 0-1.025 1.038q-2.295 2.49-3.784 6.226a19.6 19.6 0 0 0-1.066 3.833q-.317 1.79-.397 3.834a36 36 0 0 0-.026 1.39m398.34-6.396v12.793h-40.088V29.59z" fill-rule="evenodd" fill="#405e9d"/></svg></symbol><symbol viewBox="0 -960 960 960" fill="currentColor" id="calendar" xmlns="http://www.w3.org/2000/svg"><path d="M212.31-100Q182-100 161-121q-21-21-21-51.31v-535.38Q140-738 161-759q21-21 51.31-21h55.38v-84.61h61.54V-780h303.08v-84.61h60V-780h55.38Q778-780 799-759q21 21 21 51.31v535.38Q820-142 799-121q-21 21-51.31 21H212.31Zm0-60h535.38q4.62 0 8.46-3.85 3.85-3.84 3.85-8.46v-375.38H200v375.38q0 4.62 3.85 8.46 3.84 3.85 8.46 3.85ZM200-607.69h560v-100q0-4.62-3.85-8.46-3.84-3.85-8.46-3.85H212.31q-4.62 0-8.46 3.85-3.85 3.84-3.85 8.46v100Zm0 0V-720v112.31Zm280 210.77q-14.69 0-25.04-10.35-10.34-10.34-10.34-25.04 0-14.69 10.34-25.04 10.35-10.34 25.04-10.34t25.04 10.34q10.34 10.35 10.34 25.04 0 14.7-10.34 25.04-10.35 10.35-25.04 10.35Zm-160 0q-14.69 0-25.04-10.35-10.34-10.34-10.34-25.04 0-14.69 10.34-25.04 10.35-10.34 25.04-10.34t25.04 10.34q10.34 10.35 10.34 25.04 0 14.7-10.34 25.04-10.35 10.35-25.04 10.35Zm320 0q-14.69 0-25.04-10.35-10.34-10.34-10.34-25.04 0-14.69 10.34-25.04 10.35-10.34 25.04-10.34t25.04 10.34q10.34 10.35 10.34 25.04 0 14.7-10.34 25.04-10.35 10.35-25.04 10.35ZM480-240q-14.69 0-25.04-10.35-10.34-10.34-10.34-25.03 0-14.7 10.34-25.04 10.35-10.35 25.04-10.35t25.04 10.35q10.34 10.34 10.34 25.04 0 14.69-10.34 25.03Q494.69-240 480-240Zm-160 0q-14.69 0-25.04-10.35-10.34-10.34-10.34-25.03 0-14.7 10.34-25.04 10.35-10.35 25.04-10.35t25.04 10.35q10.34 10.34 10.34 25.04 0 14.69-10.34 25.03Q334.69-240 320-240Zm320 0q-14.69 0-25.04-10.35-10.34-10.34-10.34-25.03 0-14.7 10.34-25.04 10.35-10.35 25.04-10.35t25.04 10.35q10.34 10.34 10.34 25.04 0 14.69-10.34 25.03Q654.69-240 640-240Z"/></symbol><symbol viewBox="0 -960 960 960" fill="currentColor" id="car" xmlns="http://www.w3.org/2000/svg"><path d="M224.61-220v50q0 12.75-8.62 21.37-8.63 8.63-21.38 8.63H170q-12.75 0-21.37-8.63Q140-157.25 140-170v-306.92L221.69-710q4.47-13.77 16.39-21.88Q250-740 264.62-740h432.3q14.04 0 25.5 8.25 11.45 8.25 15.89 21.75L820-476.92V-170q0 12.75-8.63 21.37Q802.75-140 790-140h-24.61q-12.75 0-21.38-8.63-8.62-8.62-8.62-21.37v-50H224.61Zm-.3-316.92h511.38L685.23-680H274.77l-50.46 143.08Zm74.24 210.77q21.83 0 37.03-15.29 15.19-15.28 15.19-37.11t-15.28-37.03q-15.29-15.19-37.12-15.19t-37.02 15.28q-15.2 15.29-15.2 37.12t15.29 37.02q15.28 15.2 37.11 15.2Zm363.08 0q21.83 0 37.02-15.29 15.2-15.28 15.2-37.11t-15.29-37.03q-15.28-15.19-37.11-15.19t-37.03 15.28q-15.19 15.29-15.19 37.12t15.28 37.02q15.29 15.2 37.12 15.2Z"/></symbol><symbol viewBox="0 -960 960 960" id="close" xmlns="http://www.w3.org/2000/svg"><path d="M256-213.85 213.85-256l224-224-224-224L256-746.15l224 224 224-224L746.15-704l-224 224 224 224L704-213.85l-224-224-224 224Z"/></symbol><symbol viewBox="0 -960 960 960" fill="currentColor" id="drop-off-pin" xmlns="http://www.w3.org/2000/svg"><path d="M479.62-100Q325-234.23 252.5-347.27 180-460.31 180-566.15q0-129.7 90.35-211.77Q360.69-860 479.62-860q135.07 0 219.26 94.96 84.2 94.97 80.35 238.04l89.38-91.31 41.77 41.77-161.15 163.08-161.15-163.08 41.77-41.77L719.23-527q5-122.85-64.31-197.92Q585.62-800 479.62-800q-101 0-170.31 68.54T240-564.38q0 83.77 58.04 177t181.19 207.53q21.15-19.92 42-40.57 20.85-20.66 36.31-36.5-6.15-10.62-9.92-22-3.77-11.39-3.77-24.16 0-37.77 26.11-63.88 26.12-26.12 63.89-26.12 37.76 0 63.69 26.12 25.92 26.11 25.92 63.88t-26.11 63.69q-26.12 25.93-63.89 25.93-8.38 0-15.46-1.19-7.08-1.2-14.46-3.97-27.46 28.46-58.43 58.12-30.96 29.65-65.49 60.5Z"/></symbol><symbol viewBox="0 0 50 50" id="facebook" xmlns="http://www.w3.org/2000/svg"><path d="M25 3C12.85 3 3 12.85 3 25c0 11.03 8.125 20.137 18.712 21.728V30.831h-5.443v-5.783h5.443V21.2c0-6.371 3.104-9.168 8.399-9.168 2.536 0 3.877.188 4.512.274v5.048h-3.612c-2.248 0-3.033 2.131-3.033 4.533v3.161h6.588l-.894 5.783h-5.694v15.944C38.716 45.318 47 36.137 47 25c0-12.15-9.85-22-22-22z"/></symbol><symbol viewBox="0 0 50 50" id="google-plus" xmlns="http://www.w3.org/2000/svg"><path d="M17.188 10.938C9.421 10.938 3.124 17.233 3.124 25c0 7.766 6.297 14.063 14.063 14.063 7.765 0 14.062-6.297 14.062-14.063 0-.965-.105-1.906-.29-2.813l-.077-.312H17.188v4.688h9.375c-.747 4.433-4.731 7.812-9.375 7.812A9.372 9.372 0 0 1 7.813 25a9.372 9.372 0 0 1 9.375-9.375c2.343 0 4.48.867 6.125 2.29l3.359-3.29a13.997 13.997 0 0 0-9.485-3.688Zm21.875 6.25v4.687h-4.688V25h4.688v4.688h3.124V25h4.688v-3.125h-4.688v-4.688Z"/></symbol><symbol viewBox="0 -960 960 960" fill="currentColor" id="home-pin" xmlns="http://www.w3.org/2000/svg"><path d="M369.23-446.92h73.85v-102.31h73.84v102.31h73.85v-176.16L480-696.92l-110.77 73.84v176.16ZM480-99.62Q329-230.46 253.54-343.15q-75.46-112.7-75.46-206.93 0-138.46 89.57-224.19Q357.23-860 480-860t212.35 85.73q89.57 85.73 89.57 224.19 0 94.23-75.46 206.93Q631-230.46 480-99.62Z"/></symbol><symbol viewBox="0 0 50 50" id="instagram" xmlns="http://www.w3.org/2000/svg"><path d="M16 3C8.83 3 3 8.83 3 16v18c0 7.17 5.83 13 13 13h18c7.17 0 13-5.83 13-13V16c0-7.17-5.83-13-13-13H16zm21 8c1.1 0 2 .9 2 2s-.9 2-2 2-2-.9-2-2 .9-2 2-2zm-12 3c6.07 0 11 4.93 11 11s-4.93 11-11 11-11-4.93-11-11 4.93-11 11-11zm0 2c-4.96 0-9 4.04-9 9s4.04 9 9 9 9-4.04 9-9-4.04-9-9-9z"/></symbol><symbol viewBox="0 0 50 50" id="instagram-outline" xmlns="http://www.w3.org/2000/svg"><path d="M16 3C8.832 3 3 8.832 3 16v18c0 7.168 5.832 13 13 13h18c7.168 0 13-5.832 13-13V16c0-7.168-5.832-13-13-13H16zm0 2h18c6.086 0 11 4.914 11 11v18c0 6.086-4.914 11-11 11H16C9.914 45 5 40.086 5 34V16C5 9.914 9.914 5 16 5zm21 6a2 2 0 0 0-2 2 2 2 0 0 0 2 2 2 2 0 0 0 2-2 2 2 0 0 0-2-2zm-12 3c-6.063 0-11 4.937-11 11s4.937 11 11 11 11-4.937 11-11-4.937-11-11-11zm0 2c4.982 0 9 4.018 9 9s-4.018 9-9 9-9-4.018-9-9 4.018-9 9-9z"/></symbol><symbol viewBox="0 0 50 50" id="linkedin" xmlns="http://www.w3.org/2000/svg"><path d="M41 4H9C6.24 4 4 6.24 4 9v32c0 2.76 2.24 5 5 5h32c2.76 0 5-2.24 5-5V9c0-2.76-2.24-5-5-5zM17 20v19h-6V20h6zm-6-5.53c0-1.4 1.2-2.47 3-2.47s2.93 1.07 3 2.47c0 1.4-1.12 2.53-3 2.53-1.8 0-3-1.13-3-2.53zM39 39h-6V29c0-2-1-4-3.5-4.04h-.08C27 24.96 26 27.02 26 29v10h-6V20h6v2.56S27.93 20 31.81 20c3.97 0 7.19 2.73 7.19 8.26V39z"/></symbol><symbol viewBox="3 5 95 95" id="logo" xmlns="http://www.w3.org/2000/svg"><path d="M49.422 8C24.928 8 5 27.928 5 52.422s19.928 44.422 44.422 44.422 44.422-19.928 44.422-44.422S73.916 8 49.422 8m0 3.122c19.455 0 35.801 13.525 40.152 31.664H50.185l.067 2.342.068 2.34c.014.492-.318.904-.812.919-.492.015-.866-.372-.866-.865v-.055l.043-2.34.043-2.342H9.269c4.353-18.138 20.698-31.663 40.153-31.663m.052 60.475a1.68 1.68 0 0 1 1.624 1.624l.262 8.586a1.94 1.94 0 0 1-1.878 1.996 1.94 1.94 0 0 1-1.996-1.996l.261-8.586c.027-.925.8-1.654 1.727-1.624m-1.613-6.874v-.086l.334-8.584c.02-.637.588-1.138 1.225-1.117a1.173 1.173 0 0 1 1.137 1.117l.271 8.584c.024.781-.66 1.436-1.44 1.457-.781.025-1.527-.59-1.527-1.371M8.78 45.127h33.046a146 146 0 0 0-8.617 5.5A192.5 192.5 0 0 0 11.55 68.875a41.07 41.07 0 0 1-2.77-23.748m38.345 48.529.099-3.266a2.2 2.2 0 0 1 4.397 0l.099 3.266c-.76.04-1.527.065-2.297.065a43 43 0 0 1-2.298-.065m40.17-24.781a192.6 192.6 0 0 0-21.66-18.248 146 146 0 0 0-8.616-5.5h33.045a41.1 41.1 0 0 1-2.769 23.748" fill="#405e9d"/></symbol><symbol viewBox="0 0 982.129 143.946" id="logo-text" xmlns="http://www.w3.org/2000/svg"><path d="M458.106 32.813v16.21a60 60 0 0 1-.521 8.107 45 45 0 0 1-1.628 7.421 46.7 46.7 0 0 1-3.277 7.915 39 39 0 0 1-2.533 4.145q-3.662 5.225-8.448 8.936-4.785 3.711-10.009 6.103a48.4 48.4 0 0 1-9.882 3.328 45 45 0 0 1-.665.139 56 56 0 0 1-5.787.869 45 45 0 0 1-4.223.205l53.027 45.801h-39.258l-52.929-45.801h-18.262v-25.39h57.422q4.785-.391 8.74-2.002t6.836-4.346a18.6 18.6 0 0 0 4.443-6.592 21 21 0 0 0 1.3-4.941 28 28 0 0 0 .263-3.897V33.008a14 14 0 0 0-.047-1.185q-.101-1.16-.413-1.914a4 4 0 0 0-.077-.173q-.502-1.05-1.26-1.587l-.107-.073q-.83-.537-1.758-.635a19 19 0 0 0-.891-.073 14 14 0 0 0-.818-.024h-83.789v114.648h-25.391V14.746a12.8 12.8 0 0 1 .977-4.98 13 13 0 0 1 2.685-4.102q1.709-1.758 4.053-2.734a12.9 12.9 0 0 1 4.401-.962 15 15 0 0 1 .677-.015h96.387a39 39 0 0 1 6.468.508q3.582.603 6.55 1.921a23 23 0 0 1 1.337.647 31.5 31.5 0 0 1 6.166 4.188 26.7 26.7 0 0 1 3.356 3.527 30 30 0 0 1 5.171 9.675l.102.335q1.612 5.371 1.612 10.059Zm367.968-30.86v129.199a12.8 12.8 0 0 1-.619 4.015 12 12 0 0 1-.406 1.063q-1.025 2.344-2.734 4.053a12.4 12.4 0 0 1-4.053 2.686 12.8 12.8 0 0 1-4.981.976 13.4 13.4 0 0 1-3.952-.614 16 16 0 0 1-.784-.265 11.05 11.05 0 0 1-4.132-2.711l-.116-.121-92.773-96.875v98.633h-25.391V12.793q0-3.906 2.197-7.08a13.6 13.6 0 0 1 5.615-4.736q3.614-1.465 7.422-.733a12.07 12.07 0 0 1 6.543 3.565l92.774 96.777V1.953zm156.055 114.649v25.39h-91.602a35 35 0 0 1-5.788-.508 48 48 0 0 1-5.735-1.347q-6.25-1.856-11.572-6.104t-8.887-11.035a29.4 29.4 0 0 1-2.673-7.556q-.891-4.163-.891-9.094V14.746a12.8 12.8 0 0 1 .976-4.98 13 13 0 0 1 2.686-4.102q1.709-1.758 4.052-2.734a12.9 12.9 0 0 1 4.401-.962 15 15 0 0 1 .678-.015h114.355v25.391H880.371v79.004a15 15 0 0 0 .277 2.983q.357 1.76 1.172 3.113a8 8 0 0 0 1.188 1.521q2.289 2.289 6.418 2.591a18 18 0 0 0 1.297.046zm-854.883 0v25.39H35.645a34 34 0 0 1-4.125-.262 44 44 0 0 1-3.444-.568 39 39 0 0 1-8.008-2.588q-3.955-1.758-7.568-4.541a30.7 30.7 0 0 1-6.134-6.37l-.262-.368q-2.784-3.955-4.444-9.18a34.7 34.7 0 0 1-1.364-6.481A46 46 0 0 1 0 106.348v-68.75a34 34 0 0 1 .263-4.125 44 44 0 0 1 .567-3.444 39 39 0 0 1 2.588-8.008 35.7 35.7 0 0 1 4.24-7.115 40 40 0 0 1 .35-.453q2.832-3.613 6.787-6.396a32 32 0 0 1 6.241-3.39 39 39 0 0 1 2.89-1.054 34 34 0 0 1 6.255-1.342 45 45 0 0 1 5.464-.318h91.601v25.391H35.645a15 15 0 0 0-2.983.277q-1.761.356-3.113 1.172a8 8 0 0 0-1.522 1.187q-2.636 2.637-2.636 7.813v68.555a14.3 14.3 0 0 0 .303 3.032q.429 1.973 1.467 3.448a8 8 0 0 0 .915 1.088 8.77 8.77 0 0 0 4.026 2.259q1.396.373 3.058.42a17 17 0 0 0 .485.007zM288.672 14.746v127.246h-25.391v-34.375h-89.257v34.375h-25.391V71.973q0-15.332 5.273-28.223a66.2 66.2 0 0 1 13.209-20.696 64 64 0 0 1 1.44-1.472q9.375-9.277 22.168-14.453a71.8 71.8 0 0 1 22.307-4.992 85 85 0 0 1 5.622-.184h57.227a12.8 12.8 0 0 1 4.981.977 12.6 12.6 0 0 1 4.101 2.734 12.6 12.6 0 0 1 2.734 4.102 12.8 12.8 0 0 1 .977 4.98Zm323.535 101.856v25.39h-115.82a13.5 13.5 0 0 1-3.844-.538 12 12 0 0 1-1.234-.438 12.4 12.4 0 0 1-4.053-2.686 12.4 12.4 0 0 1-2.686-4.053 12.9 12.9 0 0 1-.961-4.4 15 15 0 0 1-.015-.678V1.953h25.391v114.649zM656.445 1.953v140.039h-25.39V1.953zm-482.421 70.02v10.254h89.257V27.344h-44.629a15 15 0 0 0-.636.016q-1.04.045-3.005.212l-1.29.114q-3.149.286-7.119 1.291a73 73 0 0 0-1.573.418 48 48 0 0 0-5.554 1.933 63 63 0 0 0-4.846 2.266 35.4 35.4 0 0 0-8.008 5.736 42 42 0 0 0-2.051 2.076 36 36 0 0 0-4.882 6.792 47 47 0 0 0-2.686 5.659 39 39 0 0 0-2.132 7.667q-.846 4.773-.846 10.449ZM970.703 59.18v25.586h-80.176V59.18z" vector-effect="non-scaling-stroke" fill-rule="evenodd" font-size="12" fill="#405e9d" style="stroke:#00000000;stroke-width:0;fill:#405e9d"/></symbol><symbol viewBox="0 -960 960 960" id="mail" xmlns="http://www.w3.org/2000/svg"><path d="M172.31-180Q142-180 121-201q-21-21-21-51.31v-455.38Q100-738 121-759q21-21 51.31-21h615.38Q818-780 839-759q21 21 21 51.31v455.38Q860-222 839-201q-21 21-51.31 21H172.31ZM480-457.69 160-662.31v410q0 5.39 3.46 8.85t8.85 3.46h615.38q5.39 0 8.85-3.46t3.46-8.85v-410L480-457.69Zm0-62.31 313.85-200h-627.7L480-520ZM160-662.31V-720v467.69q0 5.39 3.46 8.85t8.85 3.46H160v-422.31Z"/></symbol><symbol viewBox="0 -960 960 960" id="menu" xmlns="http://www.w3.org/2000/svg"><path d="M140-254.62v-59.99h680v59.99H140ZM140-450v-60h680v60H140Zm0-195.39v-59.99h680v59.99H140Z"/></symbol><symbol viewBox="0 -960 960 960" id="moon" xmlns="http://www.w3.org/2000/svg"><path d="M481.15-140q-141.66 0-240.83-99.17-99.16-99.16-99.16-240.83 0-135.77 92.11-232.88 92.11-97.12 225.57-105.2 8.62 0 16.93.62 8.3.62 16.3 1.85-30.61 28.61-48.76 69.15-18.16 40.54-18.16 86.46 0 98.33 68.84 167.17Q562.82-424 661.15-424q46.54 0 86.77-18.15 40.23-18.16 68.46-48.77 1.23 8 1.85 16.31.61 8.3.61 16.92-7.69 133.46-104.8 225.57Q616.92-140 481.15-140Z"/></symbol><symbol viewBox="0 -960 960 960" id="moon-outline" xmlns="http://www.w3.org/2000/svg"><path d="M481.15-140q-141.66 0-240.83-99.17-99.16-99.16-99.16-240.83 0-135.77 92.11-232.88 92.11-97.12 225.57-105.2 8.62 0 16.93.62 8.3.62 16.3 1.85-30.61 28.61-48.76 69.15-18.16 40.54-18.16 86.46 0 98.33 68.84 167.17Q562.82-424 661.15-424q46.54 0 86.77-18.15 40.23-18.16 68.46-48.77 1.23 8 1.85 16.31.61 8.3.61 16.92-7.69 133.46-104.8 225.57Q616.92-140 481.15-140Zm0-60q88 0 158-48.5t102-126.5q-20 5-40 8t-40 3q-123 0-209.5-86.5T365.15-660q0-20 3-40t8-40q-78 32-126.5 102t-48.5 158q0 116 82 198t198 82Zm-10-270Z"/></symbol><symbol viewBox="0 -960 960 960" id="sun" xmlns="http://www.w3.org/2000/svg"><path d="M480-300q-74.92 0-127.46-52.54Q300-405.08 300-480q0-74.92 52.54-127.46Q405.08-660 480-660q74.92 0 127.46 52.54Q660-554.92 660-480q0 74.92-52.54 127.46Q554.92-300 480-300ZM200-450H50v-60h150v60Zm710 0H760v-60h150v60ZM450-760v-150h60v150h-60Zm0 710v-150h60v150h-60ZM262.92-656.92l-93.69-90.46 42.39-44.39 90.23 92.69-38.93 42.16Zm485.46 488.69-90.84-93.31 39.54-41.54 93.69 90.46-42.39 44.39Zm-91.46-528.85 90.46-93.69 44.39 42.39-92.69 90.23-42.16-38.93ZM168.23-211.62l93.31-90.84 40.77 39.54-90.08 94.07-44-42.77Z"/></symbol><symbol viewBox="0 -960 960 960" id="sun-outline" xmlns="http://www.w3.org/2000/svg"><path d="M480-360q50 0 85-35t35-85q0-50-35-85t-85-35q-50 0-85 35t-35 85q0 50 35 85t85 35Zm0 60q-74.92 0-127.46-52.54Q300-405.08 300-480q0-74.92 52.54-127.46Q405.08-660 480-660q74.92 0 127.46 52.54Q660-554.92 660-480q0 74.92-52.54 127.46Q554.92-300 480-300ZM200-450H50v-60h150v60Zm710 0H760v-60h150v60ZM450-760v-150h60v150h-60Zm0 710v-150h60v150h-60ZM262.92-656.92l-93.69-90.46 42.39-44.39 90.23 92.69-38.93 42.16Zm485.46 488.69-90.84-93.31 39.54-41.54 93.69 90.46-42.39 44.39Zm-91.46-528.85 90.46-93.69 44.39 42.39-92.69 90.23-42.16-38.93ZM168.23-211.62l93.31-90.84 40.77 39.54-90.08 94.07-44-42.77ZM480-480Z"/></symbol><symbol viewBox="0 0 50 50" id="twitter" xmlns="http://www.w3.org/2000/svg"><path d="m6.92 6 14.217 20.727L6.229 44h3.177l13.139-15.223L32.986 44H43L28.123 22.312 42.203 6h-3.176l-12.31 14.262L16.934 6H6.92z"/></symbol><symbol viewBox="0 -960 960 960" id="user" xmlns="http://www.w3.org/2000/svg"><path d="M480-492.31q-57.75 0-98.87-41.12Q340-574.56 340-632.31q0-57.75 41.13-98.87 41.12-41.13 98.87-41.13 57.75 0 98.87 41.13Q620-690.06 620-632.31q0 57.75-41.13 98.88-41.12 41.12-98.87 41.12ZM180-187.69v-88.93q0-29.38 15.96-54.42 15.96-25.04 42.66-38.5 59.3-29.07 119.65-43.61 60.35-14.54 121.73-14.54t121.73 14.54q60.35 14.54 119.65 43.61 26.7 13.46 42.66 38.5Q780-306 780-276.62v88.93H180Z"/></symbol><symbol viewBox="0 -960 960 960" id="user-outline" xmlns="http://www.w3.org/2000/svg"><path d="M480-492.31q-57.75 0-98.87-41.12Q340-574.56 340-632.31q0-57.75 41.13-98.87 41.12-41.13 98.87-41.13 57.75 0 98.87 41.13Q620-690.06 620-632.31q0 57.75-41.13 98.88-41.12 41.12-98.87 41.12ZM180-187.69v-88.93q0-29.38 15.96-54.42 15.96-25.04 42.66-38.5 59.3-29.07 119.65-43.61 60.35-14.54 121.73-14.54t121.73 14.54q60.35 14.54 119.65 43.61 26.7 13.46 42.66 38.5Q780-306 780-276.62v88.93H180Zm60-60h480v-28.93q0-12.15-7.04-22.5-7.04-10.34-19.11-16.88-51.7-25.46-105.42-38.58Q534.7-367.69 480-367.69q-54.7 0-108.43 13.11-53.72 13.12-105.42 38.58-12.07 6.54-19.11 16.88-7.04 10.35-7.04 22.5v28.93Zm240-304.62q33 0 56.5-23.5t23.5-56.5q0-33-23.5-56.5t-56.5-23.5q-33 0-56.5 23.5t-23.5 56.5q0 33 23.5 56.5t56.5 23.5Zm0-80Zm0 384.62Z"/></symbol><symbol viewBox="0 -960 960 960" id="user-rounded" xmlns="http://www.w3.org/2000/svg"><path d="M240.92-268.31q51-37.84 111.12-59.77Q412.15-350 480-350t127.96 21.92q60.12 21.93 111.12 59.77 37.3-41 59.11-94.92Q800-417.15 800-480q0-133-93.5-226.5T480-800q-133 0-226.5 93.5T160-480q0 62.85 21.81 116.77 21.81 53.92 59.11 94.92ZM480-450q-54.77 0-92.38-37.62Q350-525.23 350-580q0-54.77 37.62-92.38Q425.23-710 480-710q54.77 0 92.38 37.62Q610-634.77 610-580q0 54.77-37.62 92.38Q534.77-450 480-450Zm0 350q-79.15 0-148.5-29.77t-120.65-81.08q-51.31-51.3-81.08-120.65Q100-400.85 100-480t29.77-148.5q29.77-69.35 81.08-120.65 51.3-51.31 120.65-81.08Q400.85-860 480-860t148.5 29.77q69.35 29.77 120.65 81.08 51.31 51.3 81.08 120.65Q860-559.15 860-480t-29.77 148.5q-29.77 69.35-81.08 120.65-51.3 51.31-120.65 81.08Q559.15-100 480-100Z"/></symbol><symbol viewBox="0 -960 960 960" id="user-rounded-outline" xmlns="http://www.w3.org/2000/svg"><path d="M240.92-268.31q51-37.84 111.12-59.77Q412.15-350 480-350t127.96 21.92q60.12 21.93 111.12 59.77 37.3-41 59.11-94.92Q800-417.15 800-480q0-133-93.5-226.5T480-800q-133 0-226.5 93.5T160-480q0 62.85 21.81 116.77 21.81 53.92 59.11 94.92ZM480.01-450q-54.78 0-92.39-37.6Q350-525.21 350-579.99t37.6-92.39Q425.21-710 479.99-710t92.39 37.6Q610-634.79 610-580.01t-37.6 92.39Q534.79-450 480.01-450ZM480-100q-79.15 0-148.5-29.77t-120.65-81.08q-51.31-51.3-81.08-120.65Q100-400.85 100-480t29.77-148.5q29.77-69.35 81.08-120.65 51.3-51.31 120.65-81.08Q400.85-860 480-860t148.5 29.77q69.35 29.77 120.65 81.08 51.31 51.3 81.08 120.65Q860-559.15 860-480t-29.77 148.5q-29.77 69.35-81.08 120.65-51.3 51.31-120.65 81.08Q559.15-100 480-100Zm0-60q54.15 0 104.42-17.42 50.27-17.43 89.27-48.73-39-30.16-88.11-47Q536.46-290 480-290t-105.77 16.65q-49.31 16.66-87.92 47.2 39 31.3 89.27 48.73Q425.85-160 480-160Zm0-350q29.85 0 49.92-20.08Q550-550.15 550-580t-20.08-49.92Q509.85-650 480-650t-49.92 20.08Q410-609.85 410-580t20.08 49.92Q450.15-510 480-510Zm0-70Zm0 355Z"/></symbol></svg>