<svg xmlns="http://www.w3.org/2000/svg" viewBox="4.21 6.32 696.85 187.04"> <svg xmlns="http://www.w3.org/2000/svg"
                viewBox="3 5 95 95" height="200" width="200">
                <path d="M49.422 8C24.928 8 5 27.928 5 52.422s19.928 44.422 44.422 44.422 44.422-19.928 44.422-44.422S73.916 8 49.422 8m0 3.122c19.455 0 35.801 13.525 40.152 31.664H50.185l.067 2.342.068 2.34c.014.492-.318.904-.812.919-.492.015-.866-.372-.866-.865v-.055l.043-2.34.043-2.342H9.269c4.353-18.138 20.698-31.663 40.153-31.663m.052 60.475a1.68 1.68 0 0 1 1.624 1.624l.262 8.586a1.94 1.94 0 0 1-1.878 1.996 1.94 1.94 0 0 1-1.996-1.996l.261-8.586c.027-.925.8-1.654 1.727-1.624m-1.613-6.874v-.086l.334-8.584c.02-.637.588-1.138 1.225-1.117a1.173 1.173 0 0 1 1.137 1.117l.271 8.584c.024.781-.66 1.436-1.44 1.457-.781.025-1.527-.59-1.527-1.371M8.78 45.127h33.046a146 146 0 0 0-8.617 5.5A192.5 192.5 0 0 0 11.55 68.875a41.07 41.07 0 0 1-2.77-23.748m38.345 48.529.099-3.266a2.2 2.2 0 0 1 4.397 0l.099 3.266c-.76.04-1.527.065-2.297.065a43 43 0 0 1-2.298-.065m40.17-24.781a192.6 192.6 0 0 0-21.66-18.248 146 146 0 0 0-8.616-5.5h33.045a41.1 41.1 0 0 1-2.769 23.748"
                        fill="#405e9d"></path>
        </svg> <svg xmlns="http://www.w3.org/2000/svg" width="501" height="110" viewBox="-30 0 521 71" x="200" y="55">
                <path d="M229.053 16.406v8.106a30 30 0 0 1-.26 4.053 22.5 22.5 0 0 1-.814 3.71 23.4 23.4 0 0 1-1.639 3.958 20 20 0 0 1-1.267 2.073 20.5 20.5 0 0 1-4.223 4.467 25.5 25.5 0 0 1-5.005 3.052 24.2 24.2 0 0 1-4.941 1.664l-.333.07a28 28 0 0 1-2.893.434 22 22 0 0 1-2.112.103l26.514 22.9h-19.629l-26.465-22.9h-9.13V35.4h28.71a15.7 15.7 0 0 0 2.829-.482 13 13 0 0 0 1.542-.519q1.977-.805 3.418-2.172a9.3 9.3 0 0 0 2.221-3.296 10.5 10.5 0 0 0 .65-2.471 14 14 0 0 0 .131-1.948v-8.008q0-1.074-.268-1.636a2.5 2.5 0 0 0-.241-.406q-.195-.264-.443-.424a2 2 0 0 0-.692-.288 2 2 0 0 0-.187-.029 9 9 0 0 0-.445-.037 7 7 0 0 0-.409-.012h-41.895v57.324h-12.695V7.373a6.4 6.4 0 0 1 .488-2.49q.489-1.172 1.343-2.051a6 6 0 0 1 2.027-1.367 6.4 6.4 0 0 1 2.2-.481 8 8 0 0 1 .339-.007h48.193q3.775 0 6.509 1.214a11 11 0 0 1 .669.324 15.7 15.7 0 0 1 3.082 2.094 13.4 13.4 0 0 1 1.678 1.763q1.831 2.319 2.637 5.005a20 20 0 0 1 .604 2.6 15.4 15.4 0 0 1 .202 2.429M413.037.977v64.599a6.4 6.4 0 0 1-.31 2.008 6 6 0 0 1-.203.531q-.512 1.172-1.367 2.027a6.2 6.2 0 0 1-2.026 1.342 6.4 6.4 0 0 1-2.49.489 6.7 6.7 0 0 1-1.977-.307 8 8 0 0 1-.391-.133q-1.197-.439-2.124-1.416L355.762 21.68v49.316h-12.696v-64.6q0-1.953 1.099-3.54a6.8 6.8 0 0 1 2.808-2.368A6.5 6.5 0 0 1 349.425 0a6.7 6.7 0 0 1 1.259.122 6.03 6.03 0 0 1 3.271 1.782l46.387 48.389V.977zm78.028 57.324v12.695h-45.801q-2.637 0-5.762-.928-3.125-.927-5.786-3.051a16.3 16.3 0 0 1-3.371-3.71 20 20 0 0 1-1.072-1.808 14.7 14.7 0 0 1-1.337-3.778q-.362-1.691-.43-3.636a26 26 0 0 1-.016-.911V7.373a6.4 6.4 0 0 1 .489-2.49q.488-1.172 1.342-2.051a6 6 0 0 1 2.027-1.367 6.4 6.4 0 0 1 2.2-.481 8 8 0 0 1 .339-.007h57.178v12.695h-50.879v39.502q0 1.846.724 3.048a4 4 0 0 0 .594.76 4.2 4.2 0 0 0 1.745 1.029q.663.208 1.464.267a9 9 0 0 0 .648.023zm-427.442 0v12.695H17.822a17 17 0 0 1-2.062-.131 22 22 0 0 1-1.722-.284 19.5 19.5 0 0 1-4.004-1.294q-1.977-.879-3.784-2.27t-3.198-3.37a15.7 15.7 0 0 1-1.648-3.019 19 19 0 0 1-.574-1.57 17.3 17.3 0 0 1-.682-3.241A23 23 0 0 1 0 53.174V18.799a17 17 0 0 1 .131-2.063 22 22 0 0 1 .284-1.721 19.5 19.5 0 0 1 1.294-4.004 17.8 17.8 0 0 1 2.12-3.558l.175-.226a15.9 15.9 0 0 1 3.394-3.199 16 16 0 0 1 3.12-1.695 19 19 0 0 1 1.445-.526q2.588-.83 5.859-.83h45.801v12.695H17.822q-1.846 0-3.048.724a4 4 0 0 0-.76.594 4.2 4.2 0 0 0-1.009 1.697q-.213.657-.279 1.455a9 9 0 0 0-.031.754v34.278q0 2.441 1.343 3.784a4.4 4.4 0 0 0 2.013 1.13q.799.213 1.771.213zm80.713-50.928v63.623h-12.695V53.809H87.012v17.187H74.316v-35.01a39 39 0 0 1 1.123-9.482 34 34 0 0 1 1.514-4.629 33.1 33.1 0 0 1 6.605-10.348 32 32 0 0 1 .719-.736 33.35 33.35 0 0 1 11.084-7.227 35.9 35.9 0 0 1 11.154-2.496 42 42 0 0 1 2.811-.091h28.614a6.4 6.4 0 0 1 2.49.488q1.172.488 2.051 1.367.878.879 1.367 2.051a6.4 6.4 0 0 1 .488 2.49m161.768 50.928v12.695h-57.911a6.7 6.7 0 0 1-1.921-.269 6 6 0 0 1-.618-.219 6.2 6.2 0 0 1-2.026-1.343 6.2 6.2 0 0 1-1.343-2.026 6.4 6.4 0 0 1-.48-2.201 8 8 0 0 1-.008-.338V.977h12.695v57.324zM328.223.977v70.019h-12.696V.977zM87.012 35.986v5.127h44.629V13.672h-22.315q-.586 0-2.466.171a19 19 0 0 0-1.69.235q-.884.161-1.869.411a36 36 0 0 0-.786.208 24 24 0 0 0-2.778.967 32 32 0 0 0-2.422 1.133 17.7 17.7 0 0 0-4.005 2.868 21 21 0 0 0-1.025 1.038q-2.295 2.49-3.784 6.226a19.6 19.6 0 0 0-1.066 3.833q-.317 1.79-.397 3.834a36 36 0 0 0-.026 1.39m398.34-6.396v12.793h-40.088V29.59z"
                        fill-rule="evenodd" fill="#405e9d"></path>
        </svg> </svg>