<svg xmlns="http://www.w3.org/2000/svg" viewBox="3 5 95 95" height="200" width="200">
    <path
        d="M49.422 8C24.928 8 5 27.928 5 52.422s19.928 44.422 44.422 44.422 44.422-19.928 44.422-44.422S73.916 8 49.422 8m0 3.122c19.455 0 35.801 13.525 40.152 31.664H50.185l.067 2.342.068 2.34c.014.492-.318.904-.812.919-.492.015-.866-.372-.866-.865v-.055l.043-2.34.043-2.342H9.269c4.353-18.138 20.698-31.663 40.153-31.663m.052 60.475a1.68 1.68 0 0 1 1.624 1.624l.262 8.586a1.94 1.94 0 0 1-1.878 1.996 1.94 1.94 0 0 1-1.996-1.996l.261-8.586c.027-.925.8-1.654 1.727-1.624m-1.613-6.874v-.086l.334-8.584c.02-.637.588-1.138 1.225-1.117a1.173 1.173 0 0 1 1.137 1.117l.271 8.584c.024.781-.66 1.436-1.44 1.457-.781.025-1.527-.59-1.527-1.371M8.78 45.127h33.046a146 146 0 0 0-8.617 5.5A192.5 192.5 0 0 0 11.55 68.875a41.07 41.07 0 0 1-2.77-23.748m38.345 48.529.099-3.266a2.2 2.2 0 0 1 4.397 0l.099 3.266c-.76.04-1.527.065-2.297.065a43 43 0 0 1-2.298-.065m40.17-24.781a192.6 192.6 0 0 0-21.66-18.248 146 146 0 0 0-8.616-5.5h33.045a41.1 41.1 0 0 1-2.769 23.748"
        fill="#405e9d" />
</svg>