<svg width="982.129" height="143.946" viewBox="0 0 982.129 143.946" xmlns="http://www.w3.org/2000/svg">
    <path
        d="M458.106 32.813v16.21a60 60 0 0 1-.521 8.107 45 45 0 0 1-1.628 7.421 46.7 46.7 0 0 1-3.277 7.915 39 39 0 0 1-2.533 4.145q-3.662 5.225-8.448 8.936-4.785 3.711-10.009 6.103a48.4 48.4 0 0 1-9.882 3.328 45 45 0 0 1-.665.139 56 56 0 0 1-5.787.869 45 45 0 0 1-4.223.205l53.027 45.801h-39.258l-52.929-45.801h-18.262v-25.39h57.422q4.785-.391 8.74-2.002t6.836-4.346a18.6 18.6 0 0 0 4.443-6.592 21 21 0 0 0 1.3-4.941 28 28 0 0 0 .263-3.897V33.008a14 14 0 0 0-.047-1.185q-.101-1.16-.413-1.914a4 4 0 0 0-.077-.173q-.502-1.05-1.26-1.587l-.107-.073q-.83-.537-1.758-.635a19 19 0 0 0-.891-.073 14 14 0 0 0-.818-.024h-83.789v114.648h-25.391V14.746a12.8 12.8 0 0 1 .977-4.98 13 13 0 0 1 2.685-4.102q1.709-1.758 4.053-2.734a12.9 12.9 0 0 1 4.401-.962 15 15 0 0 1 .677-.015h96.387a39 39 0 0 1 6.468.508q3.582.603 6.55 1.921a23 23 0 0 1 1.337.647 31.5 31.5 0 0 1 6.166 4.188 26.7 26.7 0 0 1 3.356 3.527 30 30 0 0 1 5.171 9.675l.102.335q1.612 5.371 1.612 10.059Zm367.968-30.86v129.199a12.8 12.8 0 0 1-.619 4.015 12 12 0 0 1-.406 1.063q-1.025 2.344-2.734 4.053a12.4 12.4 0 0 1-4.053 2.686 12.8 12.8 0 0 1-4.981.976 13.4 13.4 0 0 1-3.952-.614 16 16 0 0 1-.784-.265 11.05 11.05 0 0 1-4.132-2.711l-.116-.121-92.773-96.875v98.633h-25.391V12.793q0-3.906 2.197-7.08a13.6 13.6 0 0 1 5.615-4.736q3.614-1.465 7.422-.733a12.07 12.07 0 0 1 6.543 3.565l92.774 96.777V1.953zm156.055 114.649v25.39h-91.602a35 35 0 0 1-5.788-.508 48 48 0 0 1-5.735-1.347q-6.25-1.856-11.572-6.104t-8.887-11.035a29.4 29.4 0 0 1-2.673-7.556q-.891-4.163-.891-9.094V14.746a12.8 12.8 0 0 1 .976-4.98 13 13 0 0 1 2.686-4.102q1.709-1.758 4.052-2.734a12.9 12.9 0 0 1 4.401-.962 15 15 0 0 1 .678-.015h114.355v25.391H880.371v79.004a15 15 0 0 0 .277 2.983q.357 1.76 1.172 3.113a8 8 0 0 0 1.188 1.521q2.289 2.289 6.418 2.591a18 18 0 0 0 1.297.046zm-854.883 0v25.39H35.645a34 34 0 0 1-4.125-.262 44 44 0 0 1-3.444-.568 39 39 0 0 1-8.008-2.588q-3.955-1.758-7.568-4.541a30.7 30.7 0 0 1-6.134-6.37l-.262-.368q-2.784-3.955-4.444-9.18a34.7 34.7 0 0 1-1.364-6.481A46 46 0 0 1 0 106.348v-68.75a34 34 0 0 1 .263-4.125 44 44 0 0 1 .567-3.444 39 39 0 0 1 2.588-8.008 35.7 35.7 0 0 1 4.24-7.115 40 40 0 0 1 .35-.453q2.832-3.613 6.787-6.396a32 32 0 0 1 6.241-3.39 39 39 0 0 1 2.89-1.054 34 34 0 0 1 6.255-1.342 45 45 0 0 1 5.464-.318h91.601v25.391H35.645a15 15 0 0 0-2.983.277q-1.761.356-3.113 1.172a8 8 0 0 0-1.522 1.187q-2.636 2.637-2.636 7.813v68.555a14.3 14.3 0 0 0 .303 3.032q.429 1.973 1.467 3.448a8 8 0 0 0 .915 1.088 8.77 8.77 0 0 0 4.026 2.259q1.396.373 3.058.42a17 17 0 0 0 .485.007zM288.672 14.746v127.246h-25.391v-34.375h-89.257v34.375h-25.391V71.973q0-15.332 5.273-28.223a66.2 66.2 0 0 1 13.209-20.696 64 64 0 0 1 1.44-1.472q9.375-9.277 22.168-14.453a71.8 71.8 0 0 1 22.307-4.992 85 85 0 0 1 5.622-.184h57.227a12.8 12.8 0 0 1 4.981.977 12.6 12.6 0 0 1 4.101 2.734 12.6 12.6 0 0 1 2.734 4.102 12.8 12.8 0 0 1 .977 4.98Zm323.535 101.856v25.39h-115.82a13.5 13.5 0 0 1-3.844-.538 12 12 0 0 1-1.234-.438 12.4 12.4 0 0 1-4.053-2.686 12.4 12.4 0 0 1-2.686-4.053 12.9 12.9 0 0 1-.961-4.4 15 15 0 0 1-.015-.678V1.953h25.391v114.649zM656.445 1.953v140.039h-25.39V1.953zm-482.421 70.02v10.254h89.257V27.344h-44.629a15 15 0 0 0-.636.016q-1.04.045-3.005.212l-1.29.114q-3.149.286-7.119 1.291a73 73 0 0 0-1.573.418 48 48 0 0 0-5.554 1.933 63 63 0 0 0-4.846 2.266 35.4 35.4 0 0 0-8.008 5.736 42 42 0 0 0-2.051 2.076 36 36 0 0 0-4.882 6.792 47 47 0 0 0-2.686 5.659 39 39 0 0 0-2.132 7.667q-.846 4.773-.846 10.449ZM970.703 59.18v25.586h-80.176V59.18z"
        vector-effect="non-scaling-stroke" fill-rule="evenodd" font-size="12" fill="#405e9d"
        style="stroke:#00000000;stroke-width:0;fill:#405e9d" />
</svg>